<svg width="171" height="212" viewBox="0 0 171 212" fill="none" xmlns="http://www.w3.org/2000/svg">
<path d="M95.2145 90.085C91.3401 90.085 87.6243 88.5459 84.8847 85.8063C82.1451 83.0666 80.606 79.3509 80.606 75.4765C80.606 71.6021 82.1451 67.8864 84.8847 65.1467C87.6243 62.4071 91.3401 60.868 95.2145 60.868C107.479 60.8545 119.237 55.9765 127.91 47.3043C136.582 38.632 141.461 26.8737 141.475 14.609C141.475 10.7346 143.014 7.01882 145.754 4.27919C148.493 1.53957 152.209 0.000457764 156.083 0.000457764C159.958 0.000457764 163.674 1.53957 166.413 4.27919C169.153 7.01882 170.692 10.7346 170.692 14.609C170.669 34.6198 162.71 53.8045 148.56 67.9541C134.41 82.1038 115.225 90.0628 95.2145 90.085Z" fill="#0990FB"/>
<path d="M14.6095 211.823C10.735 211.823 7.01911 210.284 4.27939 207.544C1.53967 204.804 0.000488281 201.089 0.000488281 197.214C0.0229864 177.203 7.98239 158.018 22.1324 143.868C36.2825 129.718 55.4675 121.759 75.4785 121.737C79.3529 121.737 83.0686 123.276 85.8083 126.016C88.5479 128.755 90.087 132.471 90.087 136.346C90.087 140.22 88.5479 143.936 85.8083 146.675C83.0686 149.415 79.3529 150.954 75.4785 150.954C63.2137 150.968 51.4552 155.846 42.7826 164.518C34.11 173.191 29.2315 184.949 29.2175 197.214C29.2175 201.088 27.6785 204.804 24.939 207.544C22.1995 210.284 18.4839 211.823 14.6095 211.823Z" fill="#0060FF"/>
<path d="M95.2145 211.823C91.361 211.791 87.6762 210.238 84.9626 207.502C82.2489 204.766 80.7263 201.068 80.7263 197.214C80.7263 193.361 82.2489 189.663 84.9626 186.927C87.6762 184.191 91.361 182.638 95.2145 182.606C101.289 182.606 107.305 181.409 112.917 179.085C118.53 176.76 123.629 173.352 127.925 169.057C132.221 164.761 135.628 159.661 137.953 154.049C140.278 148.436 141.474 142.42 141.474 136.345C141.474 130.27 140.278 124.255 137.953 118.642C135.628 113.03 132.221 107.93 127.925 103.634C123.629 99.3386 118.53 95.9311 112.917 93.6063C107.305 91.2815 101.289 90.0849 95.2145 90.0849C91.3401 90.0849 87.6243 88.5457 84.8847 85.8062C82.1451 83.0666 80.606 79.3509 80.606 75.4764C80.606 71.602 82.1451 67.8863 84.8847 65.1467C87.6243 62.407 91.3401 60.8679 95.2145 60.8679C105.149 60.8318 114.993 62.7574 124.182 66.5343C133.372 70.3112 141.725 75.865 148.762 82.8774C155.8 89.8897 161.385 98.2225 165.195 107.398C169.005 116.573 170.967 126.41 170.967 136.345C170.967 146.28 169.005 156.118 165.195 165.293C161.385 174.468 155.8 182.801 148.762 189.813C141.725 196.826 133.372 202.38 124.182 206.157C114.993 209.934 105.149 211.859 95.2145 211.823Z" fill="url(#paint0_linear)"/>
<path d="M75.4785 150.954C55.4607 150.954 36.2628 143.002 22.1082 128.847C7.95347 114.693 0.00146484 95.4947 0.00146484 75.477C0.00146484 55.4592 7.95347 36.2614 22.1082 22.1067C36.2628 7.95198 55.4607 -3.05176e-05 75.4785 -3.05176e-05C79.3529 -3.05176e-05 83.0686 1.53908 85.8082 4.2787C88.5479 7.01833 90.087 10.7341 90.087 14.6085C90.087 18.4829 88.5479 22.1986 85.8082 24.9383C83.0686 27.6779 79.3529 29.217 75.4785 29.217C69.4035 29.217 63.3881 30.4135 57.7756 32.7383C52.163 35.0631 47.0634 38.4706 42.7677 42.7662C38.4721 47.0619 35.0646 52.1615 32.7398 57.7741C30.415 63.3866 29.2185 69.402 29.2185 75.477C29.2185 81.5519 30.415 87.5674 32.7398 93.1799C35.0646 98.7924 38.4721 103.892 42.7677 108.188C47.0634 112.483 52.163 115.891 57.7756 118.216C63.3881 120.54 69.4035 121.737 75.4785 121.737C79.3529 121.737 83.0686 123.276 85.8082 126.016C88.5479 128.755 90.087 132.471 90.087 136.345C90.087 140.22 88.5479 143.936 85.8082 146.675C83.0686 149.415 79.3529 150.954 75.4785 150.954Z" fill="url(#paint1_linear)"/>
<path d="M23.1635 142.862C15.8359 149.891 10.0063 158.329 6.02559 167.67C2.04488 177.011 -0.00461802 187.06 0.000500034 197.214C-0.0154565 199.143 0.350625 201.055 1.07762 202.842C1.80461 204.628 2.87814 206.253 4.23625 207.622C5.59436 208.992 7.21018 210.079 8.99049 210.82C10.7708 211.562 12.6804 211.944 14.609 211.944C16.5377 211.944 18.4473 211.562 20.2276 210.82C22.0079 210.079 23.6237 208.992 24.9818 207.622C26.3399 206.253 27.4134 204.628 28.1404 202.842C28.8674 201.055 29.2335 199.143 29.2175 197.214C29.2214 189.356 31.2268 181.628 35.0446 174.759C38.8623 167.89 44.3667 162.107 51.0385 157.955C40.7823 154.956 31.2807 149.811 23.1635 142.862Z" fill="#0060FF"/>
<defs>
<linearGradient id="paint0_linear" x1="125.787" y1="211.823" x2="125.787" y2="60.8674" gradientUnits="userSpaceOnUse">
<stop stop-color="#0060FF"/>
<stop offset="1" stop-color="#19E6F3"/>
</linearGradient>
<linearGradient id="paint1_linear" x1="45.0442" y1="150.954" x2="45.0442" y2="-3.05176e-05" gradientUnits="userSpaceOnUse">
<stop stop-color="#0060FF"/>
<stop offset="1" stop-color="#19E6F3"/>
</linearGradient>
</defs>
</svg>
